<svg width="374" height="382" viewBox="0 0 374 382" fill="none" xmlns="http://www.w3.org/2000/svg">
<path fill-rule="evenodd" clip-rule="evenodd" d="M114.2 1.2C111.45 1.383 107.49 1.905 105.4 2.361C103.31 2.817 101.06 3.191 100.4 3.193C99.0339 3.198 91.6849 5.135 86.5359 6.848C84.6309 7.481 82.8499 8 82.5799 8C82.3089 8 81.3479 8.349 80.4439 8.776C79.5399 9.203 77.2699 10.197 75.3999 10.985C73.5299 11.773 71.2799 12.793 70.3999 13.252C63.6829 16.755 61.784 17.812 59.691 19.209C58.381 20.084 57.1659 20.8 56.9919 20.8C56.8179 20.8 55.94 21.385 55.041 22.1C52.182 24.374 51.2249 25.065 50.1999 25.598C49.6499 25.884 48.75 26.566 48.2 27.113C47.65 27.661 46.3 28.789 45.2 29.62C39.547 33.893 28.7049 45.849 22.9109 54.2C20.5249 57.638 14.9999 66.953 14.9999 67.537C14.9999 67.733 14.6649 68.321 14.2549 68.846C13.8449 69.371 13.3729 70.25 13.2049 70.8C12.7609 72.255 9.76295 79.262 9.18395 80.2C8.91195 80.64 8.57195 81.675 8.42695 82.499C8.28195 83.323 7.72395 84.943 7.18595 86.099C6.64795 87.255 6.20595 88.698 6.20395 89.308C6.20195 89.917 5.77595 91.628 5.25795 93.111C4.73995 94.593 4.18695 96.885 4.02795 98.203C3.86995 99.521 3.32195 102.76 2.81195 105.4C1.17395 113.879 1.13695 134.535 2.74795 141.2C3.09395 142.63 3.75095 145.87 4.20895 148.4C4.66695 150.93 5.22495 153.471 5.44795 154.048C5.67095 154.624 6.09895 156.154 6.39895 157.448C7.07595 160.37 8.41095 164.369 9.58795 167C10.0799 168.1 10.7129 169.705 10.9949 170.567C11.2759 171.43 11.8239 172.69 12.2119 173.367C12.5999 174.045 13.0469 175.033 13.2059 175.563C14.2129 178.931 23.1869 193.178 28.8829 200.451C33.5819 206.453 45.9999 218.071 52.681 222.717C53.407 223.221 54.931 224.301 56.069 225.117C58.414 226.798 59.349 227.354 64.4 230.066C81.141 239.058 94.4469 243.177 112.6 244.99C126.51 246.379 142.796 245.015 156.2 241.338C157.41 241.006 159.57 240.413 161 240.021C162.43 239.628 164.23 239.021 165 238.671C165.77 238.322 168.11 237.378 170.2 236.574C174.829 234.793 183.781 230.344 187.8 227.827C205.505 216.739 220.622 201.387 229.97 185C230.598 183.9 231.631 182.1 232.265 181C232.9 179.9 233.699 178.37 234.042 177.6C234.385 176.83 235.08 175.3 235.586 174.2C237.486 170.069 239 166.452 239 166.044C239 165.811 239.351 164.852 239.779 163.911C240.728 161.827 242.376 156.195 243.38 151.6C243.788 149.73 244.309 147.721 244.538 147.135C244.985 145.988 245.873 137.887 246.622 128.122C246.98 123.441 246.977 120.96 246.606 117.322C246.342 114.725 245.891 110.08 245.605 107C245.139 101.994 244.76 100.028 242.826 92.6C241.757 88.496 240.082 82.987 239.785 82.6C239.616 82.38 239.269 81.39 239.012 80.4C238.756 79.41 237.593 76.62 236.428 74.2C235.264 71.78 234.174 69.35 234.006 68.8C233.839 68.25 233.519 67.571 233.294 67.29C232.812 66.688 229.4 60.738 229.4 60.499C229.4 60.202 224.074 52.251 222.233 49.8C214.469 39.461 198.949 25.054 190.987 20.793C190.472 20.517 189.859 20.125 189.625 19.922C186.586 17.28 169.58 9.087 163.8 7.479C162.59 7.143 160.79 6.604 159.8 6.282C156.569 5.231 151.639 3.884 149.8 3.55C148.81 3.371 146.38 2.925 144.4 2.56C142.42 2.195 139.99 1.752 139 1.576C136.207 1.08 119.771 0.831 114.2 1.2ZM134.2 13.225C135.19 13.431 138.25 13.858 141 14.175C145.505 14.693 155.595 17.034 157.333 17.964C157.71 18.166 159.094 18.611 160.409 18.954C161.724 19.296 163.513 19.942 164.385 20.388C165.256 20.835 166.198 21.2 166.477 21.2C166.933 21.2 171.148 23.042 173.2 24.138C173.64 24.373 174.99 25.085 176.2 25.72C177.41 26.356 179.57 27.633 181 28.558C182.43 29.483 184.59 30.836 185.8 31.564C194.158 36.594 207.574 49.517 213.805 58.541C214.891 60.113 216.427 62.3 217.219 63.4C218.011 64.5 219.111 66.39 219.663 67.6C220.215 68.81 221.006 70.165 221.42 70.611C221.834 71.058 222.456 72.226 222.803 73.208C223.149 74.19 223.942 75.895 224.564 76.997C227.185 81.642 231.136 93.998 233.006 103.4C235.005 113.453 235.165 136.404 233.273 141.803C232.966 142.681 232.582 144.3 232.421 145.4C231.906 148.922 229.805 156.927 228.786 159.25C228.244 160.488 227.8 161.734 227.8 162.02C227.8 162.523 222.938 173.586 222.183 174.8C221.978 175.13 221.517 175.94 221.158 176.6C220.799 177.26 219.502 179.33 218.275 181.2C217.048 183.07 215.594 185.32 215.043 186.2C214.492 187.08 213.219 188.79 212.214 190C211.209 191.21 209.86 192.909 209.216 193.775C206.248 197.767 192.606 210.8 191.395 210.8C191.179 210.8 190.327 211.403 189.501 212.139C187.105 214.277 179.543 219.07 174.8 221.457C171.158 223.29 164.492 226.203 163 226.614C162.45 226.765 161.45 227.143 160.777 227.453C148.986 232.896 118.569 235.405 105.107 232.045C103.398 231.619 101.19 231.149 100.2 231.002C98.3589 230.729 92.6279 229.199 89.3999 228.12C83.0079 225.981 80.5319 224.946 74.9999 222.1C61.0919 214.944 49.655 206.22 41.569 196.6C38.385 192.813 37.44 191.744 36.5 190.872C36.115 190.515 35.7999 190.054 35.7999 189.848C35.7999 189.642 35.099 188.557 34.241 187.437C32.298 184.898 27.1089 176.679 26.2619 174.8C25.9149 174.03 25.4189 173.13 25.1579 172.8C24.6099 172.105 20.8019 163.058 19.9379 160.4C19.6159 159.41 18.9839 157.7 18.5319 156.6C18.0809 155.5 17.5539 153.7 17.3609 152.6C17.1679 151.5 16.6409 149.34 16.1879 147.8C15.4289 145.214 14.8189 141.629 13.7409 133.4C12.1649 121.382 14.539 101.316 18.969 89.2C19.412 87.99 19.7799 86.571 19.7869 86.047C19.7939 85.523 20.1459 84.533 20.5689 83.847C20.9929 83.161 21.7199 81.61 22.1869 80.4C22.9559 78.405 24.7949 74.694 28.5499 67.563C34.4439 56.369 46.942 42.796 60.4 32.973C61.28 32.33 62.131 31.602 62.291 31.355C62.45 31.107 63.1699 30.668 63.8909 30.379C64.6109 30.09 66.1899 29.194 67.3999 28.389C69.8149 26.783 80.1419 21.68 82.9999 20.681C83.9899 20.335 86.6899 19.387 88.9999 18.574C96.2509 16.021 101.827 14.686 107.2 14.215C108.96 14.061 111.21 13.748 112.2 13.518C116.306 12.567 130.144 12.383 134.2 13.225ZM77.7419 86.365C60.6529 91.914 61.264 119.346 78.5499 122.636C91.3569 125.074 100.95 108.378 94.3119 95.2C90.9539 88.533 83.4259 84.519 77.7419 86.365ZM164 86.535C156.049 89.184 152.013 95.195 152.004 104.4C151.986 124.987 175.733 129.998 182.209 110.774C186.537 97.925 175.182 82.81 164 86.535ZM116.555 143.631C111.565 143.969 109.836 144.366 102.4 146.878C89.5789 151.209 78.4069 159.809 72.3139 170.038C66.6109 179.61 77.4439 185.309 83.5109 175.929C87.5129 169.742 94.7099 163.475 100.738 160.927C102.532 160.169 104.995 159.118 106.211 158.592C107.427 158.066 109.998 157.36 111.924 157.024C113.851 156.688 115.822 156.202 116.304 155.945C117.734 155.179 130.326 155.295 132.8 156.097C133.9 156.453 135.61 156.87 136.6 157.022C145.748 158.433 160.64 167.958 164.082 174.6C167.581 181.354 174.27 183.076 176.745 177.86C180.165 170.652 164.087 153.312 149 147.938C136.483 143.479 130.499 142.685 116.555 143.631ZM261.4 182.406C255.751 182.903 251.744 184.627 246.844 188.667C244.728 190.412 241 195.181 241 196.144C241 196.303 240.641 196.92 240.202 197.516C238.061 200.422 238.037 214.483 240.168 217.529C240.58 218.118 241.026 219.206 241.158 219.948C241.418 221.401 241.543 221.24 236.398 226.079C232.711 229.546 230.765 232.839 229.188 238.281C227.532 243.994 228.414 250.399 231.607 255.848C233.202 258.57 233.481 260.581 232.458 261.978C226.279 270.418 225.621 272.128 225.609 279.8C225.6 285.771 225.606 285.813 226.9 288.432C227.615 289.879 228.2 291.196 228.2 291.358C228.2 291.69 229.771 293.866 231.6 296.066C232.27 296.872 233.804 298.196 235.009 299.007C242.304 303.918 243.039 304.021 270.884 303.99C296.375 303.962 296.1 303.915 294.046 307.92C293.21 309.55 291.009 315.894 290.364 318.531C290.051 319.813 289.597 321.231 289.356 321.682C288.759 322.798 287.017 338.558 287.008 342.93C286.966 362.427 294.921 374.623 310.8 379.406C322.036 382.79 331.127 375.55 332.639 362.011C332.873 359.915 333.406 356.94 333.824 355.4C334.241 353.86 334.834 351.34 335.141 349.8C335.447 348.26 335.983 346.19 336.332 345.2C336.68 344.21 337.226 342.32 337.545 341C338.812 335.76 340.673 330.413 342.847 325.76C343.371 324.638 343.8 323.577 343.8 323.403C343.8 322.991 347.106 316.341 348.51 313.928C349.11 312.898 349.941 311.458 350.359 310.728C351.229 309.205 355.557 302.666 357.459 300C365.958 288.09 369.266 281.095 371.457 270.4C372.777 263.958 372.921 227.756 371.649 222C370.269 215.757 369.037 211.609 367.966 209.6C367.673 209.05 367.008 207.79 366.488 206.8C364.14 202.33 359.881 197.138 354.698 192.427C351.207 189.254 344.007 185.697 337 183.685L332 182.249L298.4 182.177C279.92 182.138 263.27 182.241 261.4 182.406ZM332.8 194.97C337.419 196.211 340.949 197.81 344.868 200.437C348.215 202.681 354.992 209.375 354.997 210.444C354.999 210.798 355.517 212.058 356.148 213.244C360.098 220.664 360.584 224.229 360.591 245.8C360.597 264.289 360.372 267.195 358.445 273.469C357.916 275.191 357.374 277.084 357.24 277.676C356.983 278.813 355.434 281.552 352.985 285.2C352.173 286.41 351.194 288.013 350.811 288.763C350.428 289.513 349.267 291.223 348.231 292.563C344.433 297.478 340.289 304.128 335.3 313.312C333.71 316.24 330.681 323.097 330.402 324.4C330.237 325.17 329.763 326.47 329.349 327.288C328.935 328.106 328.335 329.726 328.016 330.888C327.697 332.05 327.161 333.81 326.825 334.8C324.791 340.787 322.045 352.465 321.267 358.431C320.07 367.619 316.956 369.854 310.073 366.466C305.932 364.427 304.225 362.631 301.767 357.725L299.6 353.4V342C299.6 331.348 299.662 330.351 300.547 326.8C302.38 319.444 303.071 317.109 304.258 314.268C304.917 312.691 305.743 310.59 306.093 309.6C306.443 308.61 307.016 307.358 307.365 306.818C309.206 303.969 307.8 297.17 304.854 294.677C301.914 292.19 302.83 292.272 274.6 291.973C243.939 291.649 243.581 291.608 240.524 288.036C236.213 283.001 236.217 276.722 240.533 271.358C243.772 267.333 244.862 267.063 258 267.028C271.487 266.993 273.2 266.313 273.2 261C273.2 255.77 271.747 255.2 257.586 254.868L246.155 254.6L243.824 252.188C239.111 247.311 239.409 240.167 244.547 234.871C248.298 231.004 248.95 230.818 259.857 230.485C270.546 230.159 271.15 229.97 272.693 226.483C275.271 220.654 271.994 218.011 261.729 217.641C254.007 217.362 253.598 217.198 251.614 213.569C247.733 206.47 252.016 197.097 260.4 194.343C260.84 194.198 276.5 194.062 295.2 194.041L329.2 194.002L332.8 194.97Z" fill="#181011"/>
<path fill-rule="evenodd" clip-rule="evenodd" d="M113.2 0.422984C108.967 0.620984 105.717 0.996984 103.6 1.53498C101.84 1.98298 99.23 2.47298 97.8 2.62398C95.27 2.89298 90.282 4.27198 85 6.16498C83.57 6.67698 81.77 7.31998 81 7.59398C80.23 7.86698 78.7 8.41298 77.6 8.80798C73.642 10.225 62.704 15.824 59.247 18.2C57.968 19.08 56.435 20.07 55.843 20.4C54.13 21.353 51.204 23.472 50.609 24.189C50.309 24.551 49.509 25.088 48.832 25.382C45.64 26.772 33.002 39.211 27.276 46.6C26.253 47.92 25.163 49.294 24.855 49.653C23.061 51.741 16.734 61.602 15.313 64.524C14.651 65.886 13.946 67.27 13.746 67.6C13.547 67.93 13.11 68.83 12.775 69.6C12.441 70.37 11.833 71.63 11.425 72.4C10.131 74.84 7.91901 80.539 7.62001 82.2C7.46201 83.08 7.07701 84.085 6.76501 84.433C6.45301 84.781 6.01201 86.07 5.78501 87.298C5.55801 88.526 4.94901 90.581 4.43101 91.865C3.91301 93.149 3.36001 95.19 3.20201 96.4C3.04401 97.61 2.58201 100.22 2.17501 102.2C0.453011 110.589 0.313011 136.777 1.95601 143.208C2.26401 144.413 2.82601 147.29 3.20601 149.6C3.58501 151.91 4.11701 154.25 4.38901 154.8C4.66001 155.35 5.19001 157.06 5.56601 158.6C5.94301 160.14 6.48201 161.76 6.76501 162.2C7.04701 162.64 7.51301 163.982 7.79901 165.182C8.08501 166.381 8.75701 168.361 9.29301 169.582C10.831 173.082 12.618 176.91 13.224 178C13.53 178.55 14.135 179.72 14.568 180.6C15.002 181.48 16.082 183.37 16.968 184.8C17.854 186.23 18.75 187.779 18.958 188.243C19.624 189.726 22.167 193.528 23.982 195.757C24.95 196.945 26.422 198.881 27.253 200.059C33.273 208.591 57.015 229.2 60.824 229.2C61.087 229.2 61.549 229.498 61.851 229.861C62.153 230.225 65.01 231.762 68.2 233.276C71.39 234.791 74.694 236.399 75.541 236.85C77.238 237.754 83.995 240.137 86.194 240.607C86.961 240.771 87.951 241.138 88.394 241.423C88.837 241.708 90.1 242.121 91.2 242.341C92.3 242.56 94.55 243.112 96.2 243.566C98.833 244.291 104.633 245.217 114 246.409C117.674 246.876 130.889 246.874 134.2 246.406C135.63 246.204 139.5 245.68 142.8 245.241C148.794 244.445 156.625 242.654 160.4 241.215C161.5 240.796 164.443 239.799 166.94 239C169.436 238.201 172.496 237.043 173.74 236.426C174.983 235.809 177.08 234.79 178.4 234.161C180.804 233.017 184.893 230.805 187.264 229.367C187.959 228.945 189.517 228.023 190.727 227.317C191.936 226.612 193.93 225.217 195.157 224.217C196.385 223.218 197.492 222.4 197.618 222.4C199.782 222.4 216.8 205.766 222.376 198.2C222.701 197.76 223.404 196.857 223.939 196.194C224.475 195.531 225.427 194.155 226.056 193.136C226.685 192.117 227.761 190.5 228.448 189.542C229.134 188.584 230.546 186.18 231.587 184.2C232.628 182.22 233.646 180.395 233.851 180.145C234.852 178.922 239.396 168.902 239.404 167.904C239.406 167.627 239.85 166.5 240.391 165.4C240.932 164.3 241.381 163.116 241.387 162.769C241.394 162.422 241.865 160.993 242.434 159.594C243.002 158.195 243.724 155.707 244.039 154.064C244.353 152.421 244.858 150.34 245.16 149.438C245.463 148.537 245.836 146.27 245.99 144.4C246.143 142.53 246.568 139.74 246.934 138.2C247.908 134.103 247.91 112.524 246.938 109C246.574 107.68 246.153 104.902 246.002 102.826C245.852 100.751 245.4 97.961 244.998 96.626C244.597 95.292 244.149 93.448 244.004 92.53C243.859 91.611 242.931 88.551 241.943 85.73C240.955 82.908 239.823 79.593 239.429 78.363C238.328 74.931 230.437 59.394 228.948 57.729C228.59 57.328 227.999 56.46 227.635 55.8C226.168 53.14 224.316 50.37 222.8 48.569C217.78 42.604 216.257 40.925 211.563 36.173C205.086 29.615 196.844 22.902 192 20.237C191.34 19.874 189.81 18.861 188.6 17.986C187.39 17.11 184.87 15.652 183 14.745C181.13 13.838 179.33 12.889 179 12.636C178.407 12.182 173.884 10.076 170 8.44498C168.9 7.98398 167.141 7.42298 166.092 7.19998C165.043 6.97598 163.515 6.43498 162.698 5.99698C161.881 5.55798 160.932 5.19998 160.59 5.19998C160.248 5.19998 158.265 4.67198 156.184 4.02698C154.103 3.38098 150.984 2.65998 149.253 2.42398C147.522 2.18798 145.182 1.72698 144.053 1.39898C140.149 0.266984 126.09 -0.178016 113.2 0.422984ZM139 1.57598C139.99 1.75198 142.42 2.19498 144.4 2.55998C146.38 2.92498 148.81 3.37098 149.8 3.54998C151.639 3.88398 156.569 5.23098 159.8 6.28198C160.79 6.60398 162.59 7.14298 163.8 7.47898C169.58 9.08698 186.586 17.28 189.625 19.922C189.859 20.125 190.472 20.517 190.987 20.793C198.949 25.054 214.469 39.461 222.233 49.8C224.074 52.251 229.4 60.202 229.4 60.499C229.4 60.738 232.812 66.688 233.294 67.29C233.519 67.571 233.839 68.25 234.006 68.8C234.174 69.35 235.264 71.78 236.428 74.2C237.593 76.62 238.756 79.41 239.012 80.4C239.269 81.39 239.616 82.38 239.785 82.6C240.082 82.987 241.757 88.496 242.826 92.6C244.76 100.028 245.139 101.994 245.605 107C245.891 110.08 246.342 114.725 246.606 117.322C246.977 120.96 246.98 123.441 246.622 128.122C245.873 137.887 244.985 145.988 244.538 147.135C244.309 147.721 243.788 149.73 243.38 151.6C242.376 156.195 240.728 161.827 239.779 163.911C239.351 164.852 239 165.811 239 166.044C239 166.452 237.486 170.069 235.586 174.2C235.08 175.3 234.385 176.83 234.042 177.6C233.699 178.37 232.9 179.9 232.265 181C231.631 182.1 230.598 183.9 229.97 185C220.622 201.387 205.505 216.739 187.8 227.827C183.781 230.344 174.829 234.793 170.2 236.574C168.11 237.378 165.77 238.322 165 238.671C164.23 239.021 162.43 239.628 161 240.021C159.57 240.413 157.41 241.006 156.2 241.338C132.529 247.831 105.141 246.679 82 238.218C77.222 236.471 70.7 233.45 64.4 230.066C59.349 227.354 58.414 226.798 56.069 225.117C54.931 224.301 53.407 223.221 52.681 222.717C46 218.071 33.582 206.453 28.883 200.451C23.187 193.178 14.213 178.931 13.206 175.563C13.047 175.033 12.6 174.045 12.212 173.367C11.824 172.69 11.276 171.43 10.995 170.567C10.713 169.705 10.08 168.1 9.58801 167C8.41101 164.369 7.07601 160.37 6.39901 157.448C6.09901 156.154 5.67101 154.624 5.44801 154.048C5.22501 153.471 4.66701 150.93 4.20901 148.4C3.75101 145.87 3.09401 142.63 2.74801 141.2C1.13701 134.535 1.17401 113.879 2.81201 105.4C3.32201 102.76 3.87001 99.521 4.02801 98.203C4.18701 96.885 4.74001 94.593 5.25801 93.111C5.77601 91.628 6.20201 89.917 6.20401 89.308C6.20601 88.698 6.64801 87.255 7.18601 86.099C7.72401 84.943 8.28201 83.323 8.42701 82.499C8.57201 81.675 8.91201 80.64 9.18401 80.2C9.76301 79.262 12.761 72.255 13.205 70.8C13.373 70.25 13.845 69.371 14.255 68.846C14.665 68.321 15 67.733 15 67.537C15 66.953 20.525 57.638 22.911 54.2C28.705 45.849 39.547 33.893 45.2 29.62C46.3 28.789 47.65 27.661 48.2 27.113C48.75 26.566 49.65 25.884 50.2 25.598C51.225 25.065 52.182 24.374 55.041 22.1C55.94 21.385 56.818 20.8 56.992 20.8C57.166 20.8 58.381 20.084 59.691 19.209C61.784 17.812 63.683 16.755 70.4 13.252C71.28 12.793 73.53 11.773 75.4 10.985C77.27 10.197 79.54 9.20298 80.444 8.77598C81.348 8.34898 82.309 7.99998 82.58 7.99998C82.85 7.99998 84.631 7.48098 86.536 6.84798C91.685 5.13498 99.034 3.19798 100.4 3.19298C101.06 3.19098 103.31 2.81698 105.4 2.36098C111.887 0.945984 132.716 0.459984 139 1.57598ZM118.8 12.831C116.16 12.979 113.19 13.289 112.2 13.518C111.21 13.748 108.96 14.061 107.2 14.215C101.827 14.686 96.251 16.021 89 18.574C86.69 19.387 83.99 20.335 83 20.681C80.142 21.68 69.815 26.783 67.4 28.389C66.19 29.194 64.611 30.09 63.891 30.379C63.17 30.668 62.45 31.107 62.291 31.355C62.131 31.602 61.28 32.33 60.4 32.973C46.942 42.796 34.444 56.369 28.55 67.563C24.795 74.694 22.956 78.405 22.187 80.4C21.72 81.61 20.993 83.161 20.569 83.847C20.146 84.533 19.794 85.523 19.787 86.047C19.78 86.571 19.412 87.99 18.969 89.2C14.539 101.316 12.165 121.382 13.741 133.4C14.819 141.629 15.429 145.214 16.188 147.8C16.641 149.34 17.168 151.5 17.361 152.6C17.554 153.7 18.081 155.5 18.532 156.6C18.984 157.7 19.616 159.41 19.938 160.4C20.802 163.058 24.61 172.105 25.158 172.8C25.419 173.13 25.915 174.03 26.262 174.8C27.109 176.679 32.298 184.898 34.241 187.437C35.099 188.557 35.8 189.642 35.8 189.848C35.8 190.054 36.115 190.515 36.5 190.872C37.44 191.744 38.385 192.813 41.569 196.6C49.655 206.22 61.092 214.944 75 222.1C80.532 224.946 83.008 225.981 89.4 228.12C92.628 229.199 98.359 230.729 100.2 231.002C101.19 231.149 103.398 231.619 105.107 232.045C118.569 235.405 148.986 232.896 160.777 227.453C161.45 227.143 162.45 226.765 163 226.614C164.492 226.203 171.158 223.29 174.8 221.457C179.543 219.07 187.105 214.277 189.501 212.139C190.327 211.403 191.179 210.8 191.395 210.8C192.606 210.8 206.248 197.767 209.216 193.775C209.86 192.909 211.209 191.21 212.214 190C213.219 188.79 214.492 187.08 215.043 186.2C215.594 185.32 217.048 183.07 218.275 181.2C219.502 179.33 220.799 177.26 221.158 176.6C221.517 175.94 221.978 175.13 222.183 174.8C222.938 173.586 227.8 162.523 227.8 162.02C227.8 161.734 228.244 160.488 228.786 159.25C229.805 156.927 231.906 148.922 232.421 145.4C232.582 144.3 232.966 142.681 233.273 141.803C235.165 136.404 235.005 113.453 233.006 103.4C231.136 93.998 227.185 81.642 224.564 76.997C223.942 75.895 223.149 74.19 222.803 73.208C222.456 72.226 221.834 71.058 221.42 70.611C221.006 70.165 220.215 68.81 219.663 67.6C219.111 66.39 218.011 64.5 217.219 63.4C216.427 62.3 214.891 60.113 213.805 58.541C207.574 49.517 194.158 36.594 185.8 31.564C184.59 30.836 182.43 29.483 181 28.558C179.57 27.633 177.41 26.356 176.2 25.72C174.99 25.085 173.64 24.373 173.2 24.138C171.148 23.042 166.933 21.2 166.477 21.2C166.198 21.2 165.256 20.835 164.385 20.388C163.513 19.942 161.724 19.296 160.409 18.954C159.094 18.611 157.71 18.166 157.333 17.964C155.595 17.034 145.505 14.693 141 14.175C138.25 13.858 135.19 13.431 134.2 13.225C131.658 12.697 124.445 12.512 118.8 12.831ZM87.022 87.635C92.333 90.447 95.487 95.322 96.258 101.913C98.766 123.336 73.9 131.181 66.385 111.338C60.836 96.686 74.492 81.001 87.022 87.635ZM173.804 87.83C189.122 95.879 184.187 122.7 167.373 122.79C155.907 122.852 148.206 108.206 153.391 96.2C157.182 87.422 166.082 83.772 173.804 87.83ZM131.698 143.599C137.989 144.088 148.022 147.039 153.8 150.099C171.231 159.33 182.704 175.866 174.561 180.02C170.581 182.05 166.976 180.186 164.082 174.6C160.64 167.958 145.748 158.433 136.6 157.022C135.61 156.87 133.9 156.453 132.8 156.097C130.326 155.295 117.734 155.179 116.304 155.945C115.822 156.202 113.851 156.688 111.924 157.024C109.998 157.36 107.427 158.066 106.211 158.592C104.995 159.118 102.532 160.169 100.738 160.927C94.71 163.475 87.513 169.742 83.511 175.929C77.444 185.309 66.611 179.61 72.314 170.038C79.49 157.99 91.901 149.513 109.555 144.601C113.696 143.449 123.854 142.989 131.698 143.599ZM258 181.488C256.072 181.982 251.13 184.126 250.4 184.785C249.96 185.183 249.171 185.638 248.648 185.798C245.069 186.886 239.741 194.74 237.927 201.6C236.548 206.818 237.378 215.264 239.603 218.66C240.714 220.357 240.363 221.281 237.952 223C234.603 225.388 231.08 230.156 228.937 235.2C226.343 241.307 227.245 251.723 230.825 256.999C232.519 259.495 232.469 260.003 230.23 262.96C224.212 270.912 222.097 284.693 226.174 289.4C226.555 289.84 227.175 291.038 227.552 292.063C228.964 295.899 234.717 300.927 240.447 303.333C244.382 304.985 248.67 305.253 270.2 305.191C294 305.122 292.011 305.068 292.742 305.799C293.274 306.331 293.17 306.835 291.818 310.303C290.981 312.452 290.074 315.287 289.803 316.605C289.531 317.922 289.063 319.479 288.763 320.064C288.462 320.649 288.044 322.629 287.832 324.464C287.62 326.299 287.132 329.06 286.748 330.6C285.61 335.159 285.728 350.933 286.925 354.163C287.406 355.462 287.8 357.061 287.8 357.715C287.8 362.512 296.993 375.215 301.481 376.622C301.987 376.78 302.813 377.233 303.318 377.627C307.829 381.149 317.976 382.181 323.208 379.65C326.647 377.986 330.377 374.278 331.074 371.831C331.329 370.934 331.793 369.898 332.104 369.529C332.416 369.161 332.928 367.001 333.243 364.729C333.558 362.458 334.157 359.34 334.573 357.8C334.989 356.26 335.46 353.92 335.619 352.6C335.778 351.28 336.334 348.889 336.854 347.288C337.374 345.686 337.8 343.934 337.8 343.396C337.8 342.857 338.236 341.287 338.769 339.908C339.756 337.352 340.912 333.944 342.128 330C342.501 328.79 343.107 327.35 343.476 326.8C343.844 326.25 344.277 325.26 344.437 324.6C344.597 323.94 345.121 322.77 345.601 322C346.081 321.23 347.148 319.103 347.972 317.272C349.261 314.41 354.227 306.339 356.631 303.2C358.942 300.183 365.524 290.008 366.423 288.064C366.998 286.819 367.635 285.53 367.837 285.2C368.69 283.812 370.587 278.941 371.188 276.6C373.563 267.335 373.426 269.18 373.465 245.944C373.5 225.063 373.477 224.392 372.608 220.746C371.049 214.213 369.223 209.018 367.986 207.6C367.698 207.27 367.345 206.529 367.201 205.953C366.674 203.84 360.057 195.452 356.974 192.988C352.104 189.096 347.509 186 346.603 186C346.331 186 345.454 185.645 344.654 185.212C343.855 184.778 341.22 183.748 338.8 182.922L334.4 181.42L296.6 181.351C275.81 181.314 258.44 181.375 258 181.488ZM337 183.685C344.007 185.697 351.207 189.254 354.698 192.427C359.881 197.138 364.14 202.33 366.488 206.8C367.008 207.79 367.673 209.05 367.966 209.6C369.037 211.609 370.269 215.757 371.649 222C372.921 227.756 372.777 263.958 371.457 270.4C369.266 281.095 365.958 288.09 357.459 300C355.557 302.666 351.229 309.205 350.359 310.728C349.941 311.458 349.11 312.898 348.51 313.928C347.106 316.341 343.8 322.991 343.8 323.403C343.8 323.577 343.371 324.638 342.847 325.76C340.673 330.413 338.812 335.76 337.545 341C337.226 342.32 336.68 344.21 336.332 345.2C335.983 346.19 335.447 348.26 335.141 349.8C334.834 351.34 334.241 353.86 333.824 355.4C333.406 356.94 332.873 359.915 332.639 362.011C331.127 375.55 322.036 382.79 310.8 379.406C294.921 374.623 286.966 362.427 287.008 342.93C287.017 338.558 288.759 322.798 289.356 321.682C289.597 321.231 290.051 319.813 290.364 318.531C291.009 315.894 293.21 309.55 294.046 307.92C296.1 303.915 296.375 303.962 270.884 303.99C243.039 304.021 242.304 303.918 235.009 299.007C233.804 298.196 232.27 296.872 231.6 296.066C229.771 293.866 228.2 291.69 228.2 291.358C228.2 291.196 227.615 289.879 226.9 288.432C225.606 285.813 225.6 285.771 225.609 279.8C225.621 272.128 226.279 270.418 232.458 261.978C233.481 260.581 233.202 258.57 231.607 255.848C228.414 250.399 227.532 243.994 229.188 238.281C230.765 232.839 232.711 229.546 236.398 226.079C241.543 221.24 241.418 221.401 241.158 219.948C241.026 219.206 240.58 218.118 240.168 217.529C238.037 214.483 238.061 200.422 240.202 197.516C240.641 196.92 241 196.303 241 196.144C241 194.347 246.795 188.189 250.872 185.654C256.459 182.181 257.687 182.091 298.4 182.177L332 182.249L337 183.685ZM260.4 194.343C252.016 197.097 247.733 206.47 251.614 213.569C253.598 217.198 254.007 217.362 261.729 217.641C271.994 218.011 275.271 220.654 272.693 226.483C271.15 229.97 270.546 230.159 259.857 230.485C248.95 230.818 248.298 231.004 244.547 234.871C239.409 240.167 239.111 247.311 243.824 252.188L246.155 254.6L257.586 254.868C271.747 255.2 273.2 255.77 273.2 261C273.2 266.313 271.487 266.993 258 267.028C244.862 267.063 243.772 267.333 240.533 271.358C236.217 276.722 236.213 283.001 240.524 288.036C243.581 291.608 243.939 291.649 274.6 291.973C302.83 292.272 301.914 292.19 304.854 294.677C307.8 297.17 309.206 303.969 307.365 306.818C307.016 307.358 306.443 308.61 306.093 309.6C305.743 310.59 304.917 312.691 304.258 314.268C303.071 317.109 302.38 319.444 300.547 326.8C299.662 330.351 299.6 331.348 299.6 342V353.4L301.767 357.725C304.225 362.631 305.932 364.427 310.073 366.466C316.956 369.854 320.07 367.619 321.267 358.431C322.045 352.465 324.791 340.787 326.825 334.8C327.161 333.81 327.697 332.05 328.016 330.888C328.335 329.726 328.935 328.106 329.349 327.288C329.763 326.47 330.237 325.17 330.402 324.4C330.681 323.097 333.71 316.24 335.3 313.312C340.289 304.128 344.433 297.478 348.231 292.563C349.267 291.223 350.428 289.513 350.811 288.763C351.194 288.013 352.173 286.41 352.985 285.2C355.434 281.552 356.983 278.813 357.24 277.676C357.374 277.084 357.916 275.191 358.445 273.469C360.372 267.195 360.597 264.289 360.591 245.8C360.584 224.229 360.098 220.664 356.148 213.244C355.517 212.058 354.999 210.798 354.997 210.444C354.992 209.375 348.215 202.681 344.868 200.437C340.949 197.81 337.419 196.211 332.8 194.97L329.2 194.002L295.2 194.041C276.5 194.062 260.84 194.198 260.4 194.343Z" fill="#F56171"/>
</svg>
