<svg width="724" height="718" viewBox="0 0 724 718" fill="none" xmlns="http://www.w3.org/2000/svg">
<path fill-rule="evenodd" clip-rule="evenodd" d="M328.343 1.06398C262.847 8.61005 213.565 25.7265 163.548 58.2919C32.0573 143.911 -28.2954 301.859 12.698 453.091C20.1592 480.615 36.2031 518.97 47.983 537.454C49.3294 539.564 50.4307 541.531 50.4307 541.828C50.4307 542.122 54.7725 548.818 60.0772 556.703C197.856 761.469 496.301 772.216 648.829 577.903C745.3 455.004 749.316 279.438 658.565 152.262C604.494 76.4875 521.049 22.6287 432.676 6.46586C429.375 5.86343 424.803 4.9812 422.519 4.50725C403.76 0.618586 349.447 -1.36858 328.343 1.06398ZM400.361 90.0465C420.775 93.2299 440.12 98.1264 458.067 104.659C477.417 111.703 516.791 132.876 515.98 135.805C515.499 137.547 137.76 511.179 136.8 510.865C135.427 510.416 131.613 504.8 125.51 494.236C110.732 468.663 100.655 442.939 94.8894 416.058C93.0991 407.704 92.4879 404.192 90.0402 388.169C88.6131 378.816 88.6102 339.352 90.0373 329.65C90.6283 325.628 91.5394 319.455 92.0583 315.934C94.5435 299.124 102.157 271.044 107.185 260.16C107.883 258.649 109.351 255.152 110.446 252.385C113.713 244.137 124.391 223.583 128.096 218.412C129.05 217.079 129.834 215.746 129.834 215.452C129.834 214.087 140.178 199.888 150.557 187.009C191.392 136.336 256.833 99.5083 321.88 90.5889C329.243 89.5811 336.514 88.5761 338.036 88.3591C345.105 87.3512 391.06 88.5961 400.361 90.0465ZM589.958 208.725C591.204 210.361 593.034 213.136 594.032 214.898C595.027 216.656 597.206 220.36 598.873 223.126C604.148 231.877 611.809 247.586 617.373 261.074C621.109 270.13 626.445 288.094 629.19 300.848C631.004 309.282 631.727 313.448 634.028 328.737C635.484 338.401 635.495 378.704 634.048 388.169C629.862 415.504 627.555 425.899 621.974 442.556C616.591 458.633 614.706 463.233 607.735 477.32C599.688 493.58 594.473 502.134 582.099 519.381C507.871 622.828 358.961 659.168 242.583 602.234C227.914 595.056 214.061 586.973 208.961 582.614C207.445 581.317 584.233 205.753 587.049 205.753C587.404 205.753 588.713 207.092 589.958 208.725Z" fill="#FA1717"/>
</svg>
