<svg width="292" height="290" viewBox="0 0 292 290" fill="none" xmlns="http://www.w3.org/2000/svg">
<path fill-rule="evenodd" clip-rule="evenodd" d="M132.426 0.429031C106.01 3.47185 86.134 10.3738 65.9614 23.5052C12.9292 58.0296 -11.412 121.719 5.12127 182.701C8.13049 193.8 14.6012 209.266 19.3523 216.719C19.8953 217.57 20.3394 218.363 20.3394 218.483C20.3394 218.601 22.0906 221.301 24.23 224.481C79.7982 307.049 200.166 311.383 261.682 233.029C300.591 183.473 302.21 112.678 265.609 61.3971C243.802 30.8423 210.147 9.12462 174.505 2.60725C173.173 2.36433 171.329 2.00858 170.408 1.81747C162.842 0.249434 140.937 -0.551855 132.426 0.429031ZM161.471 36.3097C169.705 37.5934 177.507 39.5678 184.745 42.2019C192.55 45.0421 208.429 53.58 208.103 54.7612C207.908 55.4634 55.5605 206.124 55.1733 205.997C54.6198 205.817 53.0815 203.552 50.62 199.292C44.6597 188.98 40.5958 178.607 38.2703 167.768C37.5482 164.399 37.3017 162.983 36.3146 156.522C35.739 152.751 35.7378 136.838 36.3134 132.926C36.5518 131.304 36.9192 128.815 37.1285 127.395C38.1308 120.616 41.2016 109.294 43.2295 104.905C43.5109 104.296 44.1027 102.886 44.5446 101.77C45.862 98.444 50.1688 90.156 51.663 88.071C52.0478 87.5334 52.3641 86.9957 52.3641 86.8771C52.3641 86.3268 56.5361 80.6015 60.722 75.4081C77.1913 54.9753 103.585 40.125 129.819 36.5284C132.789 36.122 135.721 35.7168 136.335 35.6293C139.186 35.2229 157.72 35.7248 161.471 36.3097ZM237.939 84.1647C238.441 84.8244 239.18 85.9435 239.582 86.6538C239.983 87.363 240.862 88.8562 241.534 89.9718C243.662 93.5004 246.751 99.8347 248.996 105.273C250.503 108.925 252.655 116.169 253.762 121.312C254.493 124.713 254.785 126.392 255.713 132.557C256.3 136.455 256.305 152.706 255.721 156.522C254.033 167.545 253.102 171.737 250.851 178.453C248.681 184.936 247.92 186.791 245.109 192.471C241.863 199.027 239.76 202.477 234.769 209.432C204.832 251.145 144.774 265.798 97.8372 242.84C91.9211 239.946 86.334 236.687 84.2771 234.929C83.6655 234.406 235.63 82.9663 236.766 82.9663C236.909 82.9663 237.437 83.5062 237.939 84.1647Z" fill="#FA1717"/>
</svg>
